<?xml version="1.0" encoding="utf-8"?>
<!-- Generator: Adobe Illustrator 16.0.0, SVG Export Plug-In . SVG Version: 6.00 Build 0)  -->
<!DOCTYPE svg PUBLIC "-//W3C//DTD SVG 1.1//EN" "http://www.w3.org/Graphics/SVG/1.1/DTD/svg11.dtd">
<svg version="1.1" id="Layer_1" xmlns="http://www.w3.org/2000/svg" xmlns:xlink="http://www.w3.org/1999/xlink" x="0px" y="0px"
	 width="500px" height="290px" viewBox="0 0 500 290" enable-background="new 0 0 500 290" xml:space="preserve">
<g id="Main" display="none">
	<path id="voluma_2_" display="inline" fill="#BCBEC0" d="M23.77,122.92c2.521,0,104.55,0.04,108.71,0
		c0.71,0.96,5.42,15.3,5.42,29.33c0.03,13.23-1.63,27.42-2.449,28.721c-2.86,0-112.301,0.619-115.03,0.619
		c-1.17-1.859-5.28-16.48-5.28-29.33C15.3,140.13,22.72,123.13,23.77,122.92z"/>
	<path id="a16_2_" display="inline" fill="#BCBEC0" d="M328.289,121.18c-7.319-0.54-59.979-2.51-90.14,7.11
		c-8.569,4.61,7.9,16.66,11.92,17.16c5.561,1.12,128.65,2.71,131.46,3.329C369.949,139.13,349.659,119.84,328.289,121.18z"/>
	<path id="a15_2_" display="inline" fill="none" stroke="#A7A9AC" stroke-miterlimit="10" d="M406.14,202.34
		c0-11.57,9.34-20.96,20.86-20.96c13.27,0.06,20.489,8.12,20.859,20.96c0,11.57-9.34,20.96-20.859,20.96
		C414.85,222.88,405.75,214.51,406.14,202.34z"/>
	<path id="a14_2_" display="inline" fill="none" stroke="#A7A9AC" stroke-miterlimit="10" d="M218.69,200.66
		c0-12.07,9.74-21.86,21.761-21.86c13.289,0.07,22.029,10.33,21.76,21.86c0,12.07-9.74,21.859-21.76,21.859
		C228.43,222.52,218.7,213.79,218.69,200.66z"/>
	<path id="a13_2_" display="inline" fill="none" stroke="#58595B" stroke-width="2" stroke-miterlimit="10" d="M76.53,200.16
		c0-9.16,7.601-17.051,16.971-17.051s16.97,7.631,16.97,17.051c-0.28,9.52-8.03,17.05-16.97,17.05
		C84.56,216.75,76.53,209.33,76.53,200.16z"/>
	<path id="a12_2_" display="inline" fill="none" stroke="#58595B" stroke-width="2" stroke-miterlimit="10" d="M76.53,200.16
		c0-8.98,9.61-17.051,16.971-17.051c8.109,0,16.97,8.711,16.97,17.051s-8.18,17.05-16.97,17.05
		C84.79,216.939,76.53,209.141,76.53,200.16z"/>
	<path id="a11_2_" display="inline" fill="none" stroke="#58595B" stroke-width="2" stroke-miterlimit="10" d="M26.35,200.16
		c0-9.02,7.28-16.34,16.26-16.34c8.98,0,16.261,7.31,16.261,16.34c0,9.02-7.28,16.34-16.261,16.34
		C34.12,216.63,26.35,209.189,26.35,200.16z"/>
	<path id="a10_2_" display="inline" fill="none" stroke="#58595B" stroke-width="2" stroke-miterlimit="10" d="M193.44,191.63
		c-4.06,0-82.279,0.22-85.319,0"/>
	<path id="a9_2_" display="inline" fill="none" stroke="#58595B" stroke-width="2" stroke-miterlimit="10" d="M30.41,196.4"/>
	<path id="a8_2_" display="inline" fill="none" stroke="#58595B" stroke-width="2" stroke-miterlimit="10" d="M135.46,180.971
		c4.569,0,21.37,0.619,33.64,0c0.32,5.979,0.061,8.059,0.17,10.549"/>
	<path id="a7_2_" display="inline" fill="none" stroke="#58595B" stroke-width="2" stroke-miterlimit="10" d="M28.71,191.68
		c0,0-15.5-0.14-18.8-0.08c0-2.539,0-6.64,0-10.01c2.96,0.189,6.729-0.09,10.52,0c2.48,0,4.07,0,5.92-0.09"/>
	<path id="a6_2_" display="inline" fill="none" stroke="#58595B" stroke-width="2" stroke-miterlimit="10" d="M78.89,191.6
		c-4.72,0.09-19.1,0.08-22.39,0.08"/>
	<path id="a5_2_" display="inline" fill="none" stroke="#A7A9AC" stroke-width="2" stroke-miterlimit="10" d="M231.94,207.34"/>
	<path id="a4_2_" display="inline" fill="none" stroke="#A7A9AC" stroke-miterlimit="10" d="M406.13,207.34
		c-13.341-0.09-136.771-1.42-142.03-1.42"/>
	<path id="a2_2_" display="inline" fill="none" stroke="#58595B" stroke-width="2" stroke-miterlimit="10" d="M23.77,122.92
		c11.07,0,98.36,0.18,108.71,0c1.29,0.12,4.83,18.14,5.42,29.33c0,16.57-1.56,28.71-2.449,28.721c-8.73,0-110.03,0.379-115.03,0.619
		c-2.57-7.449-4.391-14.96-5.28-25.369C15.15,134.8,21.21,122.92,23.77,122.92z"/>
	<path id="a1_2_" display="inline" fill="none" stroke="#A7A9AC" stroke-miterlimit="10" d="M448.89,207.34
		c7.18,0,30.36-0.99,34.21-2.21c1.33-5,1.33-5,1.11-9.63c0.39-6.311,0.189-2.029,0-7.811c-1.131-6.42,2.319-22.209,1.42-23.66
		c-2.37-1.789-6.04-1.76-26.591-7.069c-15.22-3.739-58.17-9.399-61.369-10.649c-11.511-4.871-49.851-29.4-57.25-29.67
		c-4.74-0.21-111.34-1.93-112.82,2.85c-5.08,0-27.75,11.4-31.57,16.46c-5.56,8.82-4.399,20.88-4.51,28.74
		c-1.34,1.84,2.63,35.15,9.181,39.41c1.85-0.129,15.84,0.44,18.89,0.43"/>
	<path id="clip_3_" display="inline" fill="#95CB71" d="M-126.78,75.25c-2.81-1.87,4.71-11.98,7.74-14.02
		c3.05-1.63,6.76-9.92,60.96-9.92c40.79,0,51.75,6.38,56.02,8.68C4.33,62.6,9.95,68.71,6.21,69.75c-1.26,0.47,9.56,1.53,9.899,5
		c0.42,4.24,0.46,138.25-0.02,150.85c-0.08,2.221-72.01,7.69-78.25,7.75c-9.22,0.09-57.09-5.199-81.5-10
		C-166.08,223.52-280,122.92-126.78,75.25z"/>
</g>
<g id="Smoke1" display="none">
	<path display="inline" fill="#454545" d="M8-18c12.67-17.33,55,43,63,53.67c3,4,6.38,6.97,10.09,8.38C87.28,46.4,94.08,8.75,102,0
		c12.67-14-0.33,21.58,38.33,44.96s113,40.38,70.33,12.38C168.48,29.65,67.16,110.89,141,29.67c3.359-3.7,29.25-33.18,45-32.67
		c5.37,0.18-2.84,29.06,3.24,29.53C199.6,27.32,223,13.27,234,14.5c38.83,4.33,63.789,24.97,59.67,20.5
		c-2.29-2.49-6.641-5.49-11.74-7.63c-12.69-5.33-30.02-5.33-31.92,21.3c-2.67,37.33-23,81.67,16.33,37.67
		c12.76-14.28,23.78-22.2,33.75-27.52c16.79-8.95,30.64-10.49,44.92-22.48c16.67-14,40.67-22.67,28,0
		c-12.67,22.67-38.63,32.64-23.96,37.41S333,62.33,360.329,59c27.33-3.33,22,4,32.671-8c10.67-12-47.83-68.17,45.5-53.5
		c85.979,13.51,40.56,18.95,28,36.5c-1.07,1.5,37.05,40.77,36,42.5c-13.33,22-96.931,86.689-67.261,55.35
		c6.63-7,69.771,11.7,67.28,22.15c-1.52,6.4-32.67-1.91-34.19,3.67c-1.689,6.189,4.471,22.25,7.881,34.88
		c4.67,17.271,4.199,28.12-28.54-1.54c-5.73-5.189,18.659-166.93,7.829-108.5c-11.72,63.24-76.21,112.099-49.829,47.17
		c2.81-6.92,2.96-10.54,2.3-13.08c-1.36-5.27-6.19-5.83,2.359-21.59c12.67-23.33,32-48.67,5.33-28.67s-16.67,38-29.33,37.33
		c-12.659-0.67-6,15.33-18.67-4c-8.319-12.7-14.899-21.01-20.7-15c-3.029,3.14-5.85,10.17-8.59,22.52c-8,36,8.63,51.82-10.04,25.15
		s-23.29-11.15-22.63-24.49s49.33-90.67,10.67-22.67c-5.069,8.92-9.649,16.2-13.71,22.13C275.75,146.609,271.51,126.42,297,127
		c29.329,0.67-54,19.33,26.67,18s38.77,17.16,42.109-0.17s12-8,12.67,16s-20.109,28.84,24.561,29.51S445.67,181,451,201
		c5.329,20,71.17,44.33,58.5,55c-12.671,10.67-26.181-46.79-40.851-36.12S407.5,330.67,395.5,298s-5.83-71.67,2.829-79
		c8.66-7.33,3.33-10,10-12.67c6.671-2.67-4-16.67-11.329-13.33c-40.011,18.189,10.52,30.9-15.33,6.67
		c-21.33-20-37.891-2.17-31.891-17.51s38-28.67,0.67-19.33s-28.109,1.51-30.779,10.84c3.489-12.199-24.66,23.28-1.33,27.33
		c30.67,5.33,49.33,40,38,8.67C350.67,194,345.57,180,341.27,173s-7.8-7-10.27,5.33C326.06,203,323.67,211,329.67,193
		s-13.891-19.51,16.109,7.16s40.561,12.17,35.891,20.17s18,6-5.33,10.67s-32.67,20-52,10.67s0.21-1.811-22.271-26.93
		c-34-38-26-9.33-14-30.67c3.12-5.551,6.921-11.6,10.2-17.35c9.32-16.361,14.44-30.301-12.2-23.391
		c-6.239,1.62-11.38,3.641-15.63,5.9C250.14,159.98,250.28,175.9,250,177c-0.33,1.33,14.67,23.33,12.33-5.33
		C260,143,257,113,242.33,133c-8.311,11.34,6.93,82.391-18.33,29.67c-15.33-32-29.67-2-27-21.33c2.67-19.33,11.67-2.33,31-29
		c2.42-3.33,4.59-6.19,6.56-8.65c13.811-17.22,17.86-14.85,27.771-18.35c20.27-7.15,37.17-13.41,51.109-18.87
		C404.38,30.83,372.199,3.85,320.5,9c-16.181,1.61-37.221,29.21-53.21,31.33C238.5,44.14,200.5,16.1,203,14
		c15.22-12.78,11.939,53.86-2.76,80.09c-7.271,12.97-13.66,23.71-14.69,25.34c-2.01,3.15-2.46,0.47-4.55-11.77
		c-5.33-31.33,4.67-28.67-8.67-39.33c-13.34-10.66-16.67-26.67-16-4.67s51.33,70.33-7.33,30c-12.86-8.84-11.96-4.33-5.29,8.33
		c6.67,12.66-8.04,5.67,7.29,17.67s-8-0.67,15.33,12c23.33,12.67,40-21.33,30.67-12.67c-9.33,8.66-50,32.67-34,21.33
		c16-11.34,25,0.67,33,17.331c8,16.66,11.67,4.67,11.67,21.33s-7.67,31.67,15.67,17.67c23.33-14,6.33-61.67,17.67-41
		c5.67,10.33,5.33,22.33,4.5,32.17s-2.17,17.5,1.5,19.17c-3.46-1.57,67.149-25.35,15.43,7.33c-27.43,17.33-56.09,8.67-28.1,21.33
		c11.53,5.22,18.04,7.22,22.729,7.68c6.71,0.66,9.7-1.83,18.33-2.609c14.67-1.33,22.67-2,22.67,7.329
		c0,9.33-36.67,21.181,9.33,9.921c9.04-2.211-0.92-33.15,5.11-34.99c24.64-7.541,16.43,82.25,17.5,93.5c1.33,14,11.17-48,30.5-60
		s6.5-20.17,20.5-2.83s154.17,26.449,91.5,25.779s-154.17-3.59-162.17-8.72c-16.601-10.66,24.76-22.46-7.33-1.06
		c-10,6.67-9.33,14.1-21.33,6.72c-6.72-4.13-66.57,40.86-73.67,35.12c-7.771-6.28,37.28-63.26,31.67-66.83
		c-7.33-4.67-62.5-32.17-67.17-18.17S195.67,338.33,185,311s2.67-76,16.67-86s34-61.33,17.33-62.67
		c-79.681-6.37,138.699-76.86-23.33,44.67c-8,6-15.33,22.67-14,4.67s-7.33-5.33,1.33-18s-1.33-24.67,8.67-16
		c32.819,28.439-35.01,6.25-33.33,6c18-2.67-10-0.67-10-16.67s7.87-5.57,2-22c-1.67-4.67,9.38-26.33-4.62-9.67s3.33,26-14,16.67
		c-15.24-8.21,16.01-100.47-17.33-9.33c-33.85,92.52,3.23-17.61,2.62-45c-0.28-12.42,4.29-0.06,2.1-30.82
		c-0.67-9.33-26.43,17.82-12.43,12.49c76.67-29.21-26.41,7.03-14.33-13.67c9.33-16-16.67-6-10,18.67
		c7.42,27.45,5.141,6.39,8.04,37.67c2.67,28.669-11.33,26,2.67,28.669s-11.38,0.34,6.62,9.67s12,11.33,18,9.33s-1.33-12.67,7.33,10
		c3.25,8.5,79.74-12.88,25.67,18.67c-8,4.67,17-29.33,17.67-6c0.21,7.42-3.62,13.49-8.149,18.53c-1.66,1.851-3.421,3.56-5.101,5.149
		c-8.18,7.711-28.54,45.721-14.58,49.49c24.67,6.67,63.17-42.5,38.5-26.5s16,20.67-24.67,16s-45.33,9.33-40.67-4.67s3.33-7.33,8-22
		s41.67-12.67,13-16S120,208.33,106,209s-26.33,19.33-22.33,2c0.25-1.1,67.3-67.12,13.33-26c-28,21.33-27.33,12.67-28,21.33
		c-0.2,2.57-2.34,4.561-4.601,6.15c-5.359,3.76-11.409,5.31,5.931,7.18c24.67,2.67,17.33,16.67,24,8.67s17.67-30.67,15-9.33
		s-9.67,22-13,26.67s-7.33,12-14.67,18c-7.341,6,3.56-3.18-14,4.67C27,286.5-21.17,271.67-24.5,263s23-20,31-32s20.17-41,31.5-25
		s35.33,100.83,38,93.5S50.33,221.67,47,205s-16-15.33-2.67-20.67S57.67,185.67,65,181s26.67,15.33,6.67-8
		c-4.97-5.8-8.09-11.63-10.21-16.62c-1.74-4.08-38.45,36.771-39.33,34.29c-2.38-6.68,32.25-50.18,23.33-32.46
		C32.69,183.52-33.33,129-22,125c8.229-2.9,73.37,6.24,79.939,2.84C60.43,126.55,28.26,112.67,31,107c1.45-3,37.81,5.79,39.47,4.14
		C80.23,101.41,81.72,92.33,48,98c-29.74,5-11.19-8.33-15.42-11.55C14.39,72.6,13.15,69.58,31,66.33c22-4,20,7.33,30.67-2.67
		s30.67,0,10.67-10s-8-22-22.67-10S-11.17,75.17-12.5,68.5S30.33,43.67,33,43S8-18,8-18z"/>
</g>
<g id="Smoke2" display="none">
	<path display="inline" fill="#ED1C24" d="M100.5-21.11c12.67-17.33-20,19.94-12,30.61c3,4-11.13,33.14-7.41,34.55
		C87.28,46.4,94.08,8.75,102,0c12.67-14-0.33,21.58,38.33,44.96S275.17,28,232.5,0C190.32-27.68,67.16,110.89,141,29.67
		c3.359-3.7,29.25-33.18,45-32.67c5.37,0.18-2.84,29.06,3.24,29.53C199.6,27.32,223,13.27,234,14.5
		c38.83,4.33,49.63,49.97,45.5,45.5c-2.29-2.49,7.52-30.49,2.42-32.63c-12.69-5.33-30.021-5.33-31.92,21.3
		c-2.67,37.33-46.17,51.83-6.84,7.83c12.76-14.28,74.359,53.81,84.34,48.5c16.789-8.95,3.22-56.67,17.5-68.67
		c16.67-14-21.33-51.5-34-28.83c-12.671,22.67,23.38,61.47,38.039,66.24C363.699,78.51,333,62.33,360.329,59
		c27.33-3.33,55.5,14,66.171,2c10.67-12,5.67-71.67,99-57c85.979,13.51,2.06,28.95-10.5,46.5c-1.07,1.5-11.45,24.27-12.5,26
		c-13.33,22-96.931,86.689-67.261,55.35c6.63-7,69.771,11.7,67.28,22.15c-1.52,6.4-17.5,25.43-19.02,31
		c-1.69,6.189-10.7-5.08-7.29,7.54c4.67,17.271,4.199,28.12-28.54-1.54c-5.73-5.189,18.659-166.93,7.829-108.5
		c-11.72,63.24-76.21,112.1-49.829,47.17c2.81-6.92,2.96-10.54,2.3-13.08c-1.36-5.27-6.19-5.83,2.359-21.59
		C423,71.67,512.67,114,486,134c-26.671,20-87-29.67-99.671-30.33c-12.67-0.66-6,15.33-18.67-4c-8.319-12.7-14.899-21.01-20.699-15
		c-3.03,3.14-5.851,10.17-8.591,22.52c-8,36,8.631,51.82-10.04,25.15c-18.67-26.67-23.29-11.15-22.63-24.49s49.33-90.67,10.67-22.67
		c-5.069,8.92-9.649,16.2-13.71,22.13C275.75,146.609,271.51,126.42,297,127c29.329,0.67-54,19.33,26.67,18s38.77,17.16,42.109-0.17
		s12-8,12.67,16s-20.109,28.84,24.561,29.51S445.67,181,451,201c5.329,20,71.17,44.33,58.5,55
		c-12.671,10.67-26.181-46.79-40.851-36.12S407.5,330.67,395.5,298s62.329-29.17,71-36.5c8.67-7.33-64.83-52.5-58.171-55.17
		c6.671-2.67-4-16.67-11.329-13.33c-40.011,18.189,10.52,30.9-15.33,6.67c-21.33-20-37.891-2.17-31.891-17.51s38-28.67,0.67-19.33
		s-28.109,1.51-30.779,10.84c3.489-12.199-24.66,23.28-1.33,27.33c30.67,5.33,49.33,40,38,8.67C350.67,194,345.57,180,341.27,173
		s-7.8-7-10.27,5.33C326.06,203,323.67,211,329.67,193s-13.891-19.51,16.109,7.16s40.561,12.17,35.891,20.17s18,6-5.33,10.67
		s-32.67,20-52,10.67s0.21-1.811-22.271-26.93c-34-38-26-9.33-14-30.67c3.12-5.551,6.921-11.6,10.2-17.35
		c9.32-16.361,14.44-30.301-12.2-23.391c-6.239,1.62-13.31,46.92-17.56,49.17c-20.29,10.76-18.22-16.6-18.5-15.5
		c-0.33,1.33,14.67,23.33,12.33-5.33C260,143,257,113,242.33,133c-8.311,11.34,6.93,82.391-18.33,29.67c-15.33-32-29.67-2-27-21.33
		c2.67-19.33,11.67-2.33,31-29c2.42-3.33,4.59-6.19,6.56-8.65c13.811-17.22,17.86-14.85,27.771-18.35
		c20.27-7.15,37.17-13.41,51.109-18.87C404.38,30.83,380.699,20.85,329,26c-16.181,1.61-45.721,12.21-61.71,14.33
		C238.5,44.14,200.5,16.1,203,14c15.22-12.78,11.939,53.86-2.76,80.09c-7.271,12.97-13.66,23.71-14.69,25.34
		c-2.01,3.15-2.46,0.47-4.55-11.77c-5.33-31.33,4.67-28.67-8.67-39.33c-13.34-10.66-16.67-26.67-16-4.67s51.33,70.33-7.33,30
		c-12.86-8.84-11.96-4.33-5.29,8.33c6.67,12.66-8.04,5.67,7.29,17.67s-8-0.67,15.33,12c23.33,12.67,40-21.33,30.67-12.67
		c-9.33,8.66-50,32.67-34,21.33c16-11.34,25,0.67,33,17.331c8,16.66,11.67,4.67,11.67,21.33s-7.67,31.67,15.67,17.67
		c23.33-14,6.33-61.67,17.67-41c5.67,10.33,5.33,22.33,4.5,32.17s10.33-12,14-10.33c-3.46-1.57,54.649,4.15,2.93,36.83
		c-27.43,17.33-56.09,8.67-28.1,21.33c11.53,5.22,43.97-66.631,48.67-66.17c6.71,0.66-16.23,72.02-7.61,71.24
		c14.67-1.33-74.79,14.529-74.79,23.859s60.79,4.65,106.79-6.6c9.04-2.211-0.92-33.15,5.11-34.99c24.64-7.54,16.43,82.25,17.5,93.5
		c1.33,14,11.17-48,30.5-60s6.5-20.17,20.5-2.83s154.17,26.449,91.5,25.779s-154.17-3.59-162.17-8.719
		c-16.6-10.66,24.76-22.461-7.33-1.061c-10,6.67-9.33,14.1-21.33,6.72c-6.72-4.13-66.57,40.86-73.67,35.12
		c-7.77-6.279,1.61-39.43-4-43c-7.33-4.67-26.83-56-31.5-42S195.67,338.33,185,311s2.67-76,16.67-86s34-61.33,17.33-62.67
		c-79.681-6.37,138.699-76.86-23.33,44.67c-8,6-15.33,22.67-14,4.67s-7.33-5.33,1.33-18s-1.33-24.67,8.67-16
		c32.819,28.439-35.01,6.25-33.33,6c18-2.67-10-0.67-10-16.67s7.87-5.57,2-22c-1.67-4.67,9.38-26.33-4.62-9.67s3.33,26-14,16.67
		c-15.24-8.21,16.01-100.47-17.33-9.33c-33.85,92.52,3.23-17.61,2.62-45c-0.28-12.42,4.29-0.06,2.1-30.82
		c-0.67-9.33-26.43,17.82-12.43,12.49c76.67-29.21-26.41,7.03-14.33-13.67c9.33-16-16.67-6-10,18.67
		c7.42,27.45-49.74,20.39-46.83,51.67c2.67,28.669,43.54,12,57.54,14.669s-11.38,0.34,6.62,9.67s12,11.33,18,9.33
		s-1.33-12.67,7.33,10c3.25,8.5,79.74-12.88,25.67,18.67c-8,4.67,17-29.33,17.67-6c0.21,7.42-3.62,13.49-8.149,18.53
		c-1.66,1.851-3.421,3.56-5.101,5.149c-8.18,7.711-28.54,45.721-14.58,49.49c24.67,6.67,63.17-42.5,38.5-26.5s16,20.67-24.67,16
		s-45.33,9.33-40.67-4.67s3.33-7.33,8-22s41.67-12.67,13-16S120,208.33,106,209s-26.33,19.33-22.33,2c0.25-1.1,67.3-67.12,13.33-26
		c-28,21.33,16.17,36.83,15.5,45.5c-0.2,2.57-45.84-19.609-48.101-18.02c-5.359,3.76-11.409,5.31,5.931,7.18
		c24.67,2.67,17.33,16.67,24,8.67s17.67-30.67,15-9.33s-9.67,22-13,26.67s-7.33,12-14.67,18c-7.341,6,3.56-3.18-14,4.67
		C27,286.5-21.17,271.67-24.5,263s23-20,31-32s4.17,16.5,15.5,32.5s6.83,44.33,9.5,37S50.33,221.67,47,205s-16-15.33-2.67-20.67
		S57.67,185.67,65,181s45.5-46.17,25.5-69.5c-4.971-5.8-26.92,49.87-29.04,44.88c-1.74-4.08-38.45,36.771-39.33,34.29
		c-2.38-6.68,32.25-50.18,23.33-32.46C32.69,183.52-33.33,129-22,125c8.229-2.9,73.37,6.24,79.939,2.84
		C60.43,126.55,28.26,112.67,31,107c1.45-3,37.81,5.79,39.47,4.14c9.76-9.73,70.24-26.3,36.53-20.64c-29.74,5-70.19-0.83-74.42-4.05
		C14.39,72.6,13.15,69.58,31,66.33c22-4,20,7.33,30.67-2.67s30.67,0,10.67-10S91.17,76.5,76.5,88.5s-59.17,28.67-60.5,22
		s42.33-57.33,45-58S100.5-21.11,100.5-21.11z"/>
</g>
<g id="Tank" display="none">
	<path id="voluma_3_" display="inline" fill="#CCECFA" d="M29.75,92.64c1.88,0,354.39,1.39,357.5,1.36c0.529,0.72,9.5-0.5,9.5,41.61
		c0,41.89-8.141,42-8.75,42.97c-2.141,0-359.73,0-361.771,0c-0.87-1.391-10-6.08-10-42.97C16.23,103.67,28.96,92.8,29.75,92.64z"/>
	<path id="a16_3_" display="inline" fill="#EC8286" d="M483.09,130.1c-5.46-0.4-32.271-0.09-37.87,0c-5.41,1.9-4.351,15.27,0,17.31
		c4.149,0.84,41.2,9.47,43.3,9.939C487.46,152.17,483.81,134.99,483.09,130.1z"/>
	<path id="a15_3_" display="inline" fill="none" stroke="#EC8286" stroke-miterlimit="10" d="M425.65,202.73
		c0-9.221,7.44-16.69,16.61-16.69c10.569,0.05,16.319,6.47,16.609,16.69c0,9.22-7.439,16.689-16.609,16.689
		C432.579,219.08,425.329,212.42,425.65,202.73z"/>
	<path id="a14_3_" display="inline" fill="none" stroke="#EC8286" stroke-miterlimit="10" d="M295.57,202.73
		c0-9.221,7.44-16.69,16.61-16.69c10.149,0.05,16.82,7.88,16.609,16.69c0,9.22-7.439,16.689-16.609,16.689
		S295.58,212.75,295.57,202.73z"/>
	<path id="a13_3_" display="inline" fill="none" stroke="#ED1C24" stroke-width="2" stroke-miterlimit="10" d="M145.35,202.73
		c0-9.16,7.601-17.051,16.97-17.051c9.37,0,16.971,7.631,16.971,17.051c-0.28,9.52-8.03,17.049-16.971,17.049
		C153.38,219.311,145.35,211.891,145.35,202.73z"/>
	<path id="a12_3_" display="inline" fill="none" stroke="#ED1C24" stroke-width="2" stroke-miterlimit="10" d="M108.23,202.73
		c0-8.98,8.55-15.98,15.91-15.98c8.11,0,15.91,7.641,15.91,15.98s-7.12,15.979-15.91,15.979
		C115.44,218.439,108.23,211.7,108.23,202.73z"/>
	<path id="a11_3_" display="inline" fill="none" stroke="#ED1C24" stroke-width="2" stroke-miterlimit="10" d="M68.29,202.73
		c0-9.021,7.279-16.34,16.26-16.34c8.979,0,16.26,7.31,16.26,16.34c0,9.02-7.28,16.34-16.26,16.34
		C76.06,219.189,68.29,211.75,68.29,202.73z"/>
	<path id="a10_3_" display="inline" fill="none" stroke="#ED1C24" stroke-width="2" stroke-miterlimit="10" d="M145.72,199.17
		c-3.03,0-3.8,0.16-6.07,0"/>
	<path id="a9_3_" display="inline" fill="none" stroke="#ED1C24" stroke-width="2" stroke-miterlimit="10" d="M145.72,199.17"/>
	<path id="a8_3_" display="inline" fill="none" stroke="#ED1C24" stroke-width="2" stroke-miterlimit="10" d="M264.11,178.58
		c0,1.34,0.051,25.26,0,28.77c-3.37,0.01-82.979,0.17-85.46,0"/>
	<path id="a7_3_" display="inline" fill="none" stroke="#ED1C24" stroke-width="2" stroke-miterlimit="10" d="M68.29,199.74
		c0,0-5.08-0.09-7.54-0.051c-1.95,0.101,0,0-16-0.1c-18.521-0.42-16.521,0.131-18.521-0.42c-0.06-5.01-0.1-14.359,0-20.6"/>
	<path id="a6_3_" display="inline" fill="none" stroke="#ED1C24" stroke-width="2" stroke-miterlimit="10" d="M108.63,199.17
		c-2.55,0.301-6.05,0-7.88,0.16"/>
	<path id="a5_3_" display="inline" fill="none" stroke="#ED1C24" stroke-width="2" stroke-miterlimit="10" d="M296.22,207.34"/>
	<path id="a4_3_" display="inline" fill="none" stroke="#EC8286" stroke-miterlimit="10" d="M426.3,207.34
		c-9.96-0.07-94.21,0-98.15,0"/>
	<path id="a2_3_" display="inline" fill="none" stroke="#ED1C24" stroke-width="2" stroke-miterlimit="10" d="M29.75,92.64
		c8.27,0,349.77,1.49,357.5,1.36c0.96,0.09,10.079-0.36,9.42,39.95c1.08,41.05-8,44.63-8.67,44.63c-6.521,0-358.04-0.18-361.771,0
		c-2.56,0-10.439-11.21-9.979-44.58C16.23,106.33,27.83,92.64,29.75,92.64z"/>
	<path id="a1_3_" display="inline" fill="none" stroke="#EC8286" stroke-miterlimit="10" d="M458.23,207.34
		c5.36,0,28.521,0.91,31.4,0c2.04-2.67,0.17-20.33,0-23.79c0.29-4.71-0.96-21.88-1.101-26.2c-0.84-4.789-5.52-24.56-5.439-27.25
		c1.58,0,4.75-0.1,5.649,0c0.511-4.18-4.22-24.24-14.31-29.3c-8.59-3.64-56.93-11.55-61.68-9.41c-2.41,2.27-2.44,88.581-3.53,92.16
		c-3.79,0-102.351-0.2-106.61,0c-4.18,0.79-10.26,7.54-12.68,9.41c-1,1.38-0.84,11.94,0,14.38c1.38-0.1,4.021,0.01,6.3,0"/>
	<path id="clip_2_" display="inline" fill="#95CB71" d="M-508,86c-2.811-1.87,385.92-22.73,388.96-24.77
		c3.05-1.63,6.76-9.92,60.96-9.92c40.79,0,51.75,6.38,56.02,8.68C4.33,62.6,9.95,68.71,6.21,69.75c-1.26,0.47,9.56,1.53,9.899,5
		c0.42,4.24,0.46,138.25-0.02,150.85c-0.08,2.221-72.01,7.69-78.25,7.75c-9.22,0.09-372.43-39.399-396.84-44.199
		C-481.42,189.32-661.22,133.67-508,86z"/>
</g>
<g id="Trailer_x5F_bacis" display="none">
	<circle display="inline" fill="none" stroke="#2E3192" stroke-miterlimit="10" cx="240.45" cy="202.49" r="23.39"/>
	<circle display="inline" fill="none" stroke="#2E3192" stroke-miterlimit="10" cx="428.77" cy="202.49" r="23.39"/>
	<path display="inline" fill="none" stroke="#2E3192" stroke-miterlimit="10" d="M217.46,206.79"/>
	<path display="inline" fill="none" stroke="#2E3192" stroke-miterlimit="10" d="M406.43,209.4c-40.41-0.381-98.75-0.98-143.19-1.69
		"/>
	<path display="inline" fill="none" stroke="#2E3192" stroke-miterlimit="10" d="M406.43,209.4"/>
	<path display="inline" fill="none" stroke="#2E3192" stroke-miterlimit="10" d="M217.46,206.79c-10.78-0.3-17.38-0.61-17.87-0.92
		c-3.1-1.97-9.3-12.681-9.3-57.479c1.229-16.551,16.91-19.161,32.12-26.771s107.069-5.8,121.149-4.17
		c16.62,3.88,47.05,28.96,59.45,30.93c12.68,0,78.33,12.681,81.71,16.341c3.38,3.659,1.689,38.879,1.97,41.42
		c0.28,2.539-32.68,3.659-32.68,3.659s-1.05-0.01-3.03-0.021"/>
	<path display="inline" fill="none" stroke="#2E3192" stroke-width="2" stroke-miterlimit="10" d="M133.33,183.05
		c1.34-5.319,2.64-13.88,2.64-27.05c0-27.05-5.5-32.4-5.5-32.4H20.3c0,0-8.73,19.94-8.73,35.19c0,8.78,2.891,18.01,5.351,24.26"/>
	<circle display="inline" fill="none" stroke="#2E3192" stroke-width="2" stroke-miterlimit="10" cx="89.8" cy="208.22" r="21.41"/>
	
		<circle display="inline" fill="none" stroke="#2E3192" stroke-width="2" stroke-miterlimit="10" cx="38.44" cy="208.22" r="21.41"/>
	
		<line display="inline" fill="none" stroke="#2E3192" stroke-width="2" stroke-miterlimit="10" x1="74.55" y1="193.189" x2="53.69" y2="193.189"/>
	<path display="inline" fill="none" stroke="#2E3192" stroke-width="2" stroke-miterlimit="10" d="M74.55,193.189"/>
	
		<line display="inline" fill="none" stroke="#2E3192" stroke-width="2" stroke-miterlimit="10" x1="193.78" y1="193.189" x2="105.06" y2="193.189"/>
	<path display="inline" fill="none" stroke="#2E3192" stroke-miterlimit="10" d="M382.829,149.8c0,0-27.05-24.79-43.39-27.05
		c-16.34-2.25-62.92-1.31-76.64,1.13c-13.71,2.44-30.24,5.07-28.55,8.64c1.689,3.57,9.96,13.339,17.09,13.71
		C258.48,146.609,382.829,149.8,382.829,149.8z"/>
	<polyline display="inline" fill="none" stroke="#2E3192" stroke-width="2" stroke-miterlimit="10" points="167.57,193.189 
		167.57,183.05 6.26,183.05 6.26,193.189 23.19,193.189 	"/>
</g>
<g id="Trailer">
	<path id="voluma_1_" fill="#BCBEC0" d="M23.77,122.92c2.521,0,104.55,0.04,108.71,0c0.71,0.96,5.42,15.3,5.42,29.33
		c0.03,13.23-1.63,27.42-2.449,28.721c-2.86,0-112.301,0.619-115.03,0.619c-1.17-1.859-5.28-16.48-5.28-29.33
		C15.3,140.13,22.72,123.13,23.77,122.92z"/>
	<path id="a16_1_" fill="#BCBEC0" d="M328.289,121.18c-7.319-0.54-59.979-2.51-90.14,7.11c-8.569,4.61,7.9,16.66,11.92,17.16
		c5.561,1.12,128.65,2.71,131.46,3.329C369.949,139.13,349.659,119.84,328.289,121.18z"/>
	<path id="a15_1_" fill="none" stroke="#A7A9AC" stroke-miterlimit="10" d="M406.14,202.34c0-11.57,9.34-20.96,20.86-20.96
		c13.27,0.06,20.489,8.12,20.859,20.96c0,11.57-9.34,20.96-20.859,20.96C414.85,222.88,405.75,214.51,406.14,202.34z"/>
	<path id="a14_1_" fill="none" stroke="#A7A9AC" stroke-miterlimit="10" d="M218.69,200.66c0-12.07,9.74-21.86,21.761-21.86
		c13.289,0.07,22.029,10.33,21.76,21.86c0,12.07-9.74,21.859-21.76,21.859C228.43,222.52,218.7,213.79,218.69,200.66z"/>
	<path id="a13_1_" fill="none" stroke="#58595B" stroke-width="2" stroke-miterlimit="10" d="M76.53,200.16
		c0-9.16,7.601-17.051,16.971-17.051s16.97,7.631,16.97,17.051c-0.28,9.52-8.03,17.05-16.97,17.05
		C84.56,216.75,76.53,209.33,76.53,200.16z"/>
	<path id="a12_1_" fill="none" stroke="#58595B" stroke-width="2" stroke-miterlimit="10" d="M76.53,200.16
		c0-8.98,9.61-17.051,16.971-17.051c8.109,0,16.97,8.711,16.97,17.051s-8.18,17.05-16.97,17.05
		C84.79,216.939,76.53,209.141,76.53,200.16z"/>
	<path id="a11_1_" fill="none" stroke="#58595B" stroke-width="2" stroke-miterlimit="10" d="M26.35,200.16
		c0-9.02,7.28-16.34,16.26-16.34c8.98,0,16.261,7.31,16.261,16.34c0,9.02-7.28,16.34-16.261,16.34
		C34.12,216.63,26.35,209.189,26.35,200.16z"/>
	<path id="a10_1_" fill="none" stroke="#58595B" stroke-width="2" stroke-miterlimit="10" d="M193.44,191.63
		c-4.06,0-82.279,0.22-85.319,0"/>
	<path id="a9_1_" fill="none" stroke="#58595B" stroke-width="2" stroke-miterlimit="10" d="M30.41,196.4"/>
	<path id="a8_1_" fill="none" stroke="#58595B" stroke-width="2" stroke-miterlimit="10" d="M135.46,180.971
		c4.569,0,21.37,0.619,33.64,0c0.32,5.979,0.061,8.059,0.17,10.549"/>
	<path id="a7_1_" fill="none" stroke="#58595B" stroke-width="2" stroke-miterlimit="10" d="M28.71,191.68c0,0-15.5-0.14-18.8-0.08
		c0-2.539,0-6.64,0-10.01c2.96,0.189,6.729-0.09,10.52,0c2.48,0,4.07,0,5.92-0.09"/>
	<path id="a6_1_" fill="none" stroke="#58595B" stroke-width="2" stroke-miterlimit="10" d="M78.89,191.6
		c-4.72,0.09-19.1,0.08-22.39,0.08"/>
	<path id="a5_1_" fill="none" stroke="#A7A9AC" stroke-width="2" stroke-miterlimit="10" d="M231.94,207.34"/>
	<path id="a4_1_" fill="none" stroke="#A7A9AC" stroke-miterlimit="10" d="M406.13,207.34c-13.341-0.09-136.771-1.42-142.03-1.42"/>
	<path id="a2_1_" fill="none" stroke="#58595B" stroke-width="2" stroke-miterlimit="10" d="M23.77,122.92
		c11.07,0,98.36,0.18,108.71,0c1.29,0.12,4.83,18.14,5.42,29.33c0,16.57-1.56,28.71-2.449,28.721c-8.73,0-110.03,0.379-115.03,0.619
		c-2.57-7.449-4.391-14.96-5.28-25.369C15.15,134.8,21.21,122.92,23.77,122.92z"/>
	<path id="a1_1_" fill="none" stroke="#A7A9AC" stroke-miterlimit="10" d="M448.89,207.34c7.18,0,30.36-0.99,34.21-2.21
		c1.33-5,1.33-5,1.11-9.63c0.39-6.311,0.189-2.029,0-7.811c-1.131-6.42,2.319-22.209,1.42-23.66c-2.37-1.789-6.04-1.76-26.591-7.069
		c-15.22-3.739-58.17-9.399-61.369-10.649c-11.511-4.871-49.851-29.4-57.25-29.67c-4.74-0.21-111.34-1.93-112.82,2.85
		c-5.08,0-27.75,11.4-31.57,16.46c-5.56,8.82-4.399,20.88-4.51,28.74c-1.34,1.84,2.63,35.15,9.181,39.41
		c1.85-0.129,15.84,0.44,18.89,0.43"/>
	<path id="clip_1_" fill="#95CB71" d="M-126.78,75.25c-2.81-1.87,4.71-11.98,7.74-14.02c3.05-1.63,6.76-9.92,60.96-9.92
		c40.79,0,51.75,6.38,56.02,8.68C4.33,62.6,9.95,68.71,6.21,69.75c-1.26,0.47,9.56,1.53,9.899,5c0.42,4.24,0.46,138.25-0.02,150.85
		c-0.08,2.221-72.01,7.69-78.25,7.75c-9.22,0.09-57.09-5.199-81.5-10C-166.08,223.52-280,122.92-126.78,75.25z"/>
</g>
<g id="Barrol_x5F_bacis" display="none">
	
		<ellipse display="inline" fill="none" stroke="#EC8286" stroke-width="3" stroke-miterlimit="10" cx="246.92" cy="217.09" rx="61.739" ry="12.79"/>
	
		<ellipse display="inline" fill="none" stroke="#ED1C24" stroke-width="3" stroke-miterlimit="10" cx="246.92" cy="65.22" rx="61.739" ry="12.79"/>
	<path display="inline" fill="none" stroke="#ED1C24" stroke-width="3" stroke-miterlimit="10" d="M305.43,162.37
		c2.1,1.29,3.24,2.659,3.24,4.101c0,7.059-27.641,12.789-61.74,12.789s-61.74-5.73-61.74-12.789c0-1.291,0.92-2.541,2.641-3.711"/>
	<path display="inline" fill="none" stroke="#ED1C24" stroke-width="3" stroke-miterlimit="10" d="M305.43,212.99
		c2.1,1.289,3.24,2.66,3.24,4.09c0,7.061-27.641,12.79-61.74,12.79s-61.74-5.729-61.74-12.79c0-1.29,0.92-2.54,2.641-3.71"/>
	<path display="inline" fill="none" stroke="#EC8286" stroke-width="3" stroke-miterlimit="10" d="M314.36,78.21"/>
	<text transform="matrix(1 0 0 1 48.9998 30.9995)" display="inline" font-family="'MyriadPro-Regular'" font-size="21">160L</text>
	
		<line display="inline" fill="none" stroke="#ED1C24" stroke-width="3" stroke-miterlimit="10" x1="187.83" y1="69.8" x2="187.83" y2="221.43"/>
	
		<line display="inline" fill="none" stroke="#ED1C24" stroke-width="3" stroke-miterlimit="10" x1="305.6" y1="70.57" x2="305.6" y2="221.43"/>
	<ellipse display="inline" fill="#EC8286" cx="213.97" cy="65.22" rx="11.46" ry="2.29"/>
	<path display="inline" fill="none" stroke="#ED1C24" stroke-width="3" stroke-miterlimit="10" d="M305.43,112
		c2.1,1.29,3.24,2.66,3.24,4.1c0,7.06-27.641,12.78-61.74,12.78s-61.74-5.72-61.74-12.78c0-1.29,0.92-2.54,2.641-3.71"/>
</g>
<g id="Barrol" display="none">
	<path id="clip" display="inline" fill="#95CB71" d="M182.25,218.09c-2.811-1.869,3.979-3.529,7.02-5.58
		c7.73-1.51,5.23-7.21,59.44-7.199c40.79,0,56.26,4.01,56.17,11.66C299,231.87,191.63,228.37,189.25,213.62
		c-1.26,0.47-1.53-2.46-1.08,1c2.2,16.75,111.58,18.38,117.869,4.13c4.971-11.26,31.86,200.85,25.62,200.92
		c-9.22,0.09-144.919,4.801-169.329,0C139.91,419.83,189.89,220.311,182.25,218.09z"/>
	<path id="voluma_5_" display="inline" fill="#BCBEC0" d="M187.83,212.641C187.4,206.12,187.37,73.87,187.4,68.62
		c-13.14-12.12,45.94-16.19,59.53-16.19c13.08,0,76.58,6.32,58.67,16.19c0.59,19.38,0.18,136.26,0,143.89
		c12.53,10.37-13.85,17.37-65.149,17.141C211.25,228.88,177.63,224.25,187.83,212.641z"/>
	<path id="a16_4_" display="inline" fill="#BCBEC0" d="M213.97,62.93c-3.88,0-11.46,0.7-11.46,2.29c0,1.53,7.21,2.63,11.46,2.29
		c5.88,0.39,11.46-1.01,11.46-1.89C225.43,63.88,219.35,62.93,213.97,62.93z"/>
	<path id="a15_4_" display="inline" fill="none" stroke="#A7A9AC" stroke-miterlimit="10" d="M186.16,216.971
		c0-11.57,51.029-12.66,62.55-12.66c13.27,0.06,59.59-0.061,59.949,12.779c0,11.57-49.899,12.54-61.419,12.54
		C235.09,229.221,186.16,226.221,186.16,216.971z"/>
	<path id="a14_4_" display="inline" fill="none" stroke="#A7A9AC" stroke-miterlimit="10" d="M186.16,216.971
		c0-12.07,47.569-12.671,59.59-12.671c13.29,0.07,63.17,1.25,62.909,12.79c0,12.08-46.64,12.79-58.659,12.79
		C237.98,229.88,186.47,227.38,186.16,216.971z"/>
	<path id="a13_4_" display="inline" fill="none" stroke="#58595B" stroke-width="2" stroke-miterlimit="10" d="M185.18,65.22
		c0-9.16,78.31-9.79,87.68-9.79s34.97,0.38,34.97,9.79c-0.279,9.52-11.18,8.36-20.119,8.36C278.78,73.12,185.18,74.38,185.18,65.22z
		"/>
	<path id="a12_5_" display="inline" fill="none" stroke="#58595B" stroke-width="2" stroke-miterlimit="10" d="M185.18,65.22
		c0-8.98,47.65-12.79,61.74-12.79c16.24,0,61.739,4.45,61.739,12.79c0,8.34-42.739,12.83-58.539,12.89
		C241.42,77.84,185.18,74.19,185.18,65.22z"/>
	<path id="a11_4_" display="inline" fill="none" stroke="#58595B" stroke-width="2" stroke-miterlimit="10" d="M186.25,65.22
		c0-9.02,15.75-9.79,24.729-9.79c8.98,0,97.68,0.77,97.68,9.79c0,9.02-92.159,9.27-101.14,9.27
		C199.03,74.62,186.25,74.24,186.25,65.22z"/>
	<path id="a10_4_" display="inline" fill="none" stroke="#58595B" stroke-width="2" stroke-miterlimit="10" d="M187.39,68.62
		c-4.06,0,3.47,144.239,0.43,144.021"/>
	<path id="a9_4_" display="inline" fill="none" stroke="#58595B" stroke-width="2" stroke-miterlimit="10" d="M30.41,196.4"/>
	<path id="a8_4_" display="inline" fill="none" stroke="#58595B" stroke-width="2" stroke-miterlimit="10" d="M306.28,162.37
		c10.59,9.63-35.779,16.88-58.819,16.88c-18.46,0-71.84-5.13-59.641-16.88"/>
	<path id="a7_4_" display="inline" fill="none" stroke="#58595B" stroke-width="2" stroke-miterlimit="10" d="M306.28,112.57
		c0,0,12.34,7.9-29.01,14.65c-8.52,0.83-19.45,2.04-27.28,1.64c-13.5,0.02-37.779-1.79-33.989-1.7c2.479,0-43.511-4.24-28.101-15.16
		"/>
	<path id="a6_4_" display="inline" fill="none" stroke="#58595B" stroke-width="2" stroke-miterlimit="10" d="M187.83,211
		c0-4.18,0.72-12.75,0.68-17.5"/>
	<path id="a5_4_" display="inline" fill="none" stroke="#A7A9AC" stroke-width="2" stroke-miterlimit="10" d="M281.13,344.45"/>
	<path id="a4_4_" display="inline" fill="none" stroke="#A7A9AC" stroke-miterlimit="10" d="M305.6,68.62
		c0.97,11.38,0.08,135.69,0,143.89"/>
	<path id="a2_4_" display="inline" fill="none" stroke="#58595B" stroke-width="2" stroke-miterlimit="10" d="M253.49,78.21
		c11.069,0,42.8-5.31,52.109-9.59c1.29,0.12,0.46,137.13,0,143.89c18.65,17.37-54.7,17.36-55.6,17.37
		c-8.73,0-76.5-1.63-62.17-17.229c0-8.34,0.46-133.61-0.431-144.021C195.5,76.25,250.92,78.21,253.49,78.21z"/>
	<path id="a1_4_" display="inline" fill="none" stroke="#A7A9AC" stroke-miterlimit="10" d="M303.84,210.99
		c-1.59-0.211-1.59-0.211-2.16-1.03c-1.09,0.2-1.09,0.2-2.63-0.31c-1.76-1.19-2.97-1.5-5.12-2.041
		c-3.31-0.699-4.76-0.909-9.05-1.539c-2.25-0.271-3.63-0.42-9.12-0.92c-7.01-0.43-10.76,0.1-15.26-0.49
		c-8.37-0.28-10.23-0.1-17.63-0.37c-4.74-0.21-13.75,0.819-17.381,0.95c-5.079,0-8.369,0.26-12.119,1.02
		c-2.73-0.06-2.73-0.06-6.12,0.4c-3.141,0.77-8.601,2.061-13,3.49c1.85-0.131-9.49,2.49-6.44,2.479"/>
</g>
<g id="Bucket_x5F_bacis" display="none">
	
		<line display="inline" fill="none" stroke="#EC8286" stroke-width="3" stroke-miterlimit="10" x1="317.82" y1="84.69" x2="170.27" y2="84.69"/>
	<path display="inline" fill="none" stroke="#EC8286" stroke-width="3" stroke-miterlimit="10" d="M320.699,86.09"/>
	<path display="inline" fill="none" stroke="#ED1C24" stroke-width="3" stroke-miterlimit="10" d="M322.19,92.94
		c0.811-6.49,3.061-8.51-4.37-8.24c-2.979,25.6-17.35,145.649-20,145.729c-5.42,0.16-82.149-0.16-102.51-0.02
		c-3.25,0.02-21.609-122.33-25.04-145.7c-6.58-0.41-5.899,0.95-4.01,8.24"/>
	<path display="inline" fill="none" stroke="#EC8286" stroke-width="3" stroke-miterlimit="10" d="M320.56,86.09
		c0,38.34-21.08,57.4-47.02,57.4c-25.94,0-19.59-0.13-50.13-0.13s-56.07-29.46-56.07-57.27"/>
	<text transform="matrix(1 0 0 1 48.9998 30.9995)" display="inline" font-family="'MyriadPro-Regular'" font-size="21">10L</text>
</g>
<g id="Bucket" display="none">
	<path id="clip_4_" display="inline" fill="#95CB71" d="M177.74,464.51c-2.811-1.869,3.979-3.529,7.02-5.58
		c7.73-1.51,5.23-7.209,59.44-7.199c40.79,0,56.26,4.01,56.169,11.66c-5.88,14.898-113.249,11.398-115.63-3.352
		c-1.26,0.471-1.529-2.459-1.079,1c2.199,16.75,111.579,18.381,117.869,4.131c4.971-11.26,38.2-235.359,31.96-235.3
		c-9.22,0.09-162.59,1.19-187-3.61C124.08,226.42,185.39,466.73,177.74,464.51z"/>
	<path id="voluma_4_" display="inline" fill="#BCBEC0" d="M195.47,228.84c-0.43-6.52-23.25-129.42-23.22-134.67
		c20.92-0.53,55.33-2.17,68.92-2.17c13.08,0,45.33,0.96,75.71,0.96c0.59,19.38-18.851,129.29-19.03,136.92
		c-23.479,0.53,2.25,0.681-49.05,0.45C219.6,229.55,202.5,229.25,195.47,228.84z"/>
	<path id="a16_5_" display="inline" fill="#BCBEC0" d="M170.76,85.22c-3.88,0-1.7-0.73-2.68-0.03c0.05,0.55,0.63,0.23,1.58,0.33
		c2.58-0.13,3.77,0.53,3.77-0.35C173.35,84.69,172.25,84.92,170.76,85.22z"/>
	<path id="a15_5_" display="inline" fill="none" stroke="#A7A9AC" stroke-miterlimit="10" d="M196.04,229.471
		c8.13,0.51,41.25,0.85,52.77,0.85c13.271,0.06,48.65-12.74,49.01,0.09c-8.899,0.43-40.17-0.1-51.689-0.1
		C233.97,229.9,202.17,229.88,196.04,229.471z"/>
	<path id="a14_5_" display="inline" fill="none" stroke="#A7A9AC" stroke-miterlimit="10" d="M194.87,229.88
		c12.46-0.18,43.109,0,55.13,0c13.29,0.06,48.119-11.54,47.85,0c-6.35,0.55-37.66,0.44-49.689,0.44
		C236.15,230.32,203.33,229.88,194.87,229.88z"/>
	<path id="a13_5_" display="inline" fill="none" stroke="#58595B" stroke-width="2" stroke-miterlimit="10" d="M195.47,228.84
		c6.53,0.45,44.41,1.68,53.78,1.68s48.569-9.51,48.569-0.1c-0.279,9.52-40.71-0.1-49.649-0.1
		C239.23,229.859,203.92,229.88,195.47,228.84z"/>
	<path id="a12_6_" display="inline" fill="none" stroke="#58595B" stroke-width="2" stroke-miterlimit="10" d="M194.87,229.88
		c6.869-0.21,40.22,0,54.31,0c16.25,0,48.67-8.34,48.67,0c0,8.341-32.06-0.06-47.85,0C241.3,229.609,202.66,229.79,194.87,229.88z"
		/>
	<path id="a11_5_" display="inline" fill="none" stroke="#58595B" stroke-width="2" stroke-miterlimit="10" d="M195.47,228.84
		c10.521,0.6,42.96,1.07,51.94,1.07c8.979,0,43.34,1.811,50.399,0.51c0,9.02-42.189-0.529-51.17-0.529
		C238.15,230.02,205.09,229.221,195.47,228.84z"/>
	<path id="a10_5_" display="inline" fill="none" stroke="#58595B" stroke-width="2" stroke-miterlimit="10" d="M170.27,84.69
		c2.12,11.12,27.641,145.4,24.601,145.18"/>
	<path id="a9_5_" display="inline" fill="none" stroke="#58595B" stroke-width="2" stroke-miterlimit="10" d="M30.41,196.4"/>
	<path id="a8_5_" display="inline" fill="none" stroke="#58595B" stroke-width="2" stroke-miterlimit="10" d="M165.77,92.96
		c-1.06-3.47-1.399-6.96-0.81-9.21c2.38,0,6.66-0.42,7.29,2.58"/>
	<path id="a7_5_" display="inline" fill="none" stroke="#58595B" stroke-width="2" stroke-miterlimit="10" d="M323.15,92.88
		c0,0,1.54-7.69-1.399-8.18c-1.44-0.61-3.881-1.51-3.931,0c-0.99,10.28-6.03,47.17-8.35,63.46c-1.84,14.97-9.91,71.55-11.641,82.27"
		/>
	<path id="a6_5_" display="inline" fill="none" stroke="#58595B" stroke-width="2" stroke-miterlimit="10" d="M195.47,229.939
		c0-4.18,102.39,5.23,102.35,0.48"/>
	<path id="a5_5_" display="inline" fill="none" stroke="#A7A9AC" stroke-width="2" stroke-miterlimit="10" d="M281.13,344.45"/>
	<path id="a4_5_" display="inline" fill="none" stroke="#A7A9AC" stroke-miterlimit="10" d="M273.54,143.49
		c-10.63,0-43.71,0.41-50.21,0.41"/>
	<path id="a2_5_" display="inline" fill="none" stroke="#58595B" stroke-width="2" stroke-miterlimit="10" d="M250.75,84.6
		c11.069,0,56.369,0.03,67.069,0.1c1.29,0.12-19.54,138.97-20,145.729c-12.04,0.051-48.76-0.1-49.649-0.1
		c-8.73,0-43.08-1.48-52.69-1.48c0-8.34-24.66-133.01-25.55-143.419C178.5,84.69,248.19,84.6,250.75,84.6z"/>
	<path id="a1_5_" display="inline" fill="none" stroke="#A7A9AC" stroke-miterlimit="10" d="M320.17,84.7
		c-0.78,14.91-2.381,56.57-44.88,58.79c-1.41-0.03-1.75,0-2.96,0c-2.13-0.08-5.21,1-7.71,1.04c-2.79,0.08-3.67-0.88-5.96-0.83
		c-2.42,0-2.101,0.91-5.48,0.87c-2.88,0-2.479-0.87-4.979-0.87c-2.15,0-3.74,1.03-6.46,0.99c-2.711,0.08-3.461-1.09-5.711-0.88
		c-2.409-0.17-3.6,1.1-6.1,1.06c-2.46,0.13-3.75-0.97-6.6-0.96c-29.17,0.34-57.57-32.32-56.4-58.71c9.34,0,150.71-0.479,153.76-0.49
		"/>
</g>
<g id="Pet_x5F_bacis" display="none">
	<text transform="matrix(1 0 0 1 48.9998 28.9995)" display="inline" font-family="'MyriadPro-Regular'" font-size="21">1,5L</text>
	<path display="inline" fill="none" stroke="#ED1C24" stroke-width="3" stroke-miterlimit="10" d="M242.74,28.46
		c-0.37,7.03-2.921,16.75-6.141,24.58c-1.96,4.75-16.95,14.8-17.32,32.12c-0.38,17.87,0,52.51,0,59.49s4.28,23.18,4.19,33.8
		c-0.08,9.22-4.19,14.8-4.19,23.46s7.83,20.99,10.61,24.58c3.91,5.029,7.73,3.91,20.11,3.91s16.2,1.119,20.109-3.91
		c2.79-3.59,10.61-15.92,10.61-24.58s-4.11-14.25-4.19-23.46c-0.09-10.61,4.19-26.81,4.19-33.8c0-6.99,0.38-41.62,0-59.49
		c-0.37-17.32-15.36-27.37-17.32-32.12c-3.22-7.83-5.77-17.55-6.14-24.58"/>
	<path display="inline" fill="#EC8286" d="M261.45,13.86c0-1.22-23.36-1.57-23.36,0c0,1.57,0,15.57,0,15.57h23.36
		C261.45,29.44,261.45,15.08,261.45,13.86z"/>
</g>
<g id="Bottle" display="none">
	<path id="clip_5_" display="inline" fill="#95CB71" d="M185.19,464.42c-2.81-1.869,3.98-3.529,7.021-5.58
		c7.729-1.51,5.229-7.209,59.439-7.199c40.79,0,56.26,4.01,56.17,11.66c-5.88,14.898-113.25,11.398-115.63-3.352
		c-1.26,0.471-1.529-2.459-1.08,1c2.2,16.75,111.58,18.381,117.87,4.131c4.97-11.26,38.2-235.359,31.96-235.301
		c-9.22,0.091-162.59,1.191-187-3.609C131.52,226.33,192.83,466.641,185.19,464.42z"/>
	<path id="voluma_6_" display="inline" fill="#BCBEC0" d="M223.33,177.25C216,146.5,221.27,78.26,221.3,73
		c36.03-43.53,14.85-57.25,28.44-57.25c16.76,17-5.49,17.5,29.26,57c0.59,19.38,5.25,67.25-2.431,106.76
		c7.101,25.83,4.08,50.94-26.569,50.37C220.8,229.1,216.5,216.17,223.33,177.25z"/>
	<path id="a16_6_" display="inline" fill="#BCBEC0" d="M261.45,13.86c-4.641-1.68-15.33-2.36-23.36,0c0.05,0.55-0.16,10.95,0,15.57
		c2.58-0.13,15.53,0,23.36,0C261.45,26.5,261.45,18.81,261.45,13.86z"/>
	<path id="a15_6_" display="inline" fill="none" stroke="#A7A9AC" stroke-miterlimit="10" d="M196.04,229.471
		c8.13,0.51,41.25,0.85,52.77,0.85c13.271,0.06,48.65-12.74,49.01,0.09c-8.899,0.43-40.17-0.1-51.689-0.1
		C233.97,229.9,202.17,229.88,196.04,229.471z"/>
	<path id="a14_6_" display="inline" fill="none" stroke="#A7A9AC" stroke-miterlimit="10" d="M194.87,229.88
		c12.46-0.18,43.109,0,55.13,0c13.29,0.06,48.119-11.54,47.85,0c-6.35,0.55-37.66,0.44-49.689,0.44
		C236.15,230.32,203.33,229.88,194.87,229.88z"/>
	<path id="a13_6_" display="inline" fill="none" stroke="#58595B" stroke-width="2" stroke-miterlimit="10" d="M195.47,228.84
		c6.53,0.45,44.41,1.68,53.78,1.68s48.569-9.51,48.569-0.1c-0.279,9.52-40.71-0.1-49.649-0.1
		C239.23,229.859,203.92,229.88,195.47,228.84z"/>
	<path id="a12_8_" display="inline" fill="none" stroke="#58595B" stroke-width="2" stroke-miterlimit="10" d="M194.87,229.88
		c6.869-0.21,40.22,0,54.31,0c16.25,0,48.67-8.34,48.67,0c0,8.341-32.06-0.06-47.85,0C241.3,229.609,202.66,229.79,194.87,229.88z"
		/>
	<path id="a11_6_" display="inline" fill="none" stroke="#58595B" stroke-width="2" stroke-miterlimit="10" d="M195.47,228.84
		c10.521,0.6,42.96,1.07,51.94,1.07c8.979,0,43.34,1.811,50.399,0.51c0,9.02-42.189-0.529-51.17-0.529
		C238.15,230.02,205.09,229.221,195.47,228.84z"/>
	<path id="a10_6_" display="inline" fill="none" stroke="#58595B" stroke-width="2" stroke-miterlimit="10" d="M219.27,149.63
		c-0.17,6.38,7.101,25,2.58,38.96"/>
	<path id="a9_6_" display="inline" fill="none" stroke="#58595B" stroke-width="2" stroke-miterlimit="10" d="M30.41,196.4"/>
	<path id="a8_6_" display="inline" fill="none" stroke="#58595B" stroke-width="2" stroke-miterlimit="10" d="M280.65,83.58
		c0-12.75-14-26.2-17.239-30.54c-4.24-6.12-6.08-22.26-6.08-23.57"/>
	<path id="a7_6_" display="inline" fill="none" stroke="#58595B" stroke-width="2" stroke-miterlimit="10" d="M280.65,83.58
		c0,0,0.25,53.08,0.08,61.07c0,9.18-4.189,21.84-4.189,33.8c0,7.3,4.189,16.05,4.189,23.46c-1.84,14.97-8.12,20.99-14.22,28.67"/>
	<path id="a6_6_" display="inline" fill="none" stroke="#58595B" stroke-width="2" stroke-miterlimit="10" d="M221.85,188.58
		c-7.97,23.17,8.4,39.67,12.98,41.22"/>
	<path id="a5_6_" display="inline" fill="none" stroke="#A7A9AC" stroke-width="2" stroke-miterlimit="10" d="M281.13,344.45"/>
	<path id="a4_6_" display="inline" fill="none" stroke="#A7A9AC" stroke-miterlimit="10" d="M261.45,29.44
		c-10.631,0-16.86,0-23.36,0"/>
	<path id="a2_6_" display="inline" fill="none" stroke="#58595B" stroke-width="2" stroke-miterlimit="10" d="M236.88,53.31
		c-6.09,8.96-16.811,16.36-16.811,30.27c1.29,0.12-0.79,60.24-0.79,66.04c0-8.33,1.2-65.88,0.311-65.88
		c0.17-15,11.5-22.08,17.01-30.71c2.87-4.92,6.15-19.17,6.15-23.66C242.75,33.79,239.78,48.15,236.88,53.31z"/>
	<path id="a1_6_" display="inline" fill="none" stroke="#A7A9AC" stroke-miterlimit="10" d="M255.58,29.507
		c2.462-0.037,0,0-5.841-0.037c-1.41-0.03,4.675-0.03,3.465-0.03c-2.13-0.08-0.965-0.01-3.465,0.03
		c-2.79,0.08,5.755-0.07,3.465-0.03c-2.42,0-7.074-0.029-10.454-0.07c-2.88,0,6.5,0.1,4,0.1c-2.15,0,5.709,0.039,2.989,0
		c-2.71,0.08,3.189-0.208,0.939,0.001c-2.41-0.17,9.151,0.039,6.651-0.001c-2.46,0.13-11.73-0.111-14.58-0.1
		c-0.194,0.003,1.584,0.1,2.526,0.06c9.339,0,5.34-0.05,8.391-0.06"/>
</g>
<g id="Can_x5F_bacis" display="none">
	
		<ellipse display="inline" fill="none" stroke="#EC8286" stroke-width="3" stroke-miterlimit="10" cx="247.02" cy="206.91" rx="57.6" ry="25.6"/>
	<text transform="matrix(1 0 0 1 48.9998 30.9995)" display="inline" font-family="'MyriadPro-Regular'" font-size="21">0,33L</text>
	<path display="inline" fill="none" stroke="#ED1C24" stroke-width="3" stroke-miterlimit="10" d="M304.619,60.85
		c0,14.14-25.789,25.6-57.6,25.6c-31.81,0-57.6-11.46-57.6-25.6"/>
	<path display="inline" fill="none" stroke="#ED1C24" stroke-width="3" stroke-miterlimit="10" d="M304.619,206.91
		c0,14.14-25.789,25.6-57.6,25.6c-31.81,0-57.6-11.46-57.6-25.6"/>
	
		<line display="inline" fill="none" stroke="#ED1C24" stroke-width="3" stroke-miterlimit="10" x1="304.619" y1="60.85" x2="304.619" y2="206.91"/>
	
		<line display="inline" fill="none" stroke="#ED1C24" stroke-width="3" stroke-miterlimit="10" x1="189.43" y1="206.91" x2="189.43" y2="60.85"/>
	<path display="inline" fill="none" stroke="#ED1C24" stroke-width="3" stroke-miterlimit="10" d="M198.69,43.93l-2.81,5.14l0,0
		c0,0-6.45,7.53-6.45,11.78c0,14.14,25.79,25.6,57.6,25.6c31.811,0,57.601-11.46,57.601-25.6c0-4-2.07-7.79-5.75-11.16l-3.51-5.75"
		/>
	
		<ellipse display="inline" fill="none" stroke="#ED1C24" stroke-width="3" stroke-miterlimit="10" cx="247.02" cy="43.93" rx="48.34" ry="21.48"/>
	<path display="inline" fill="none" stroke="#EC8286" stroke-width="3" stroke-miterlimit="10" d="M237.49,26.8
		c3.06,0.18,24.069,13.15,23.979,16.02c-0.09,2.87-8.52,7.04-12.69,7.96c-4.17,0.93-32.409-11.57-33.43-14.07
		c-1.02-2.5,3.15-4.17,7.69-6.85C227.58,27.18,234.43,26.61,237.49,26.8z"/>
	<path display="inline" fill="#EC8286" d="M261.47,42.82c8.86,1.07,23.61,5.1,21.67,8.01c-1.939,2.91-11.29,8.84-19.82,9.03
		c-8.52,0.19-14.819-4.35-15.189-9.03"/>
</g>
<g id="Cannetje" display="none">
	<path id="clip_6_" display="inline" fill="#95CB71" d="M180.96,207.96c-2.811-1.87,3.979-3.53,7.02-5.58
		c7.73-1.51,5.42-20.899,59.63-20.89c40.79,0,56.08,17.689,55.98,25.35c-2.08,28.65-94.83,37.65-112.71,2.49
		c-6.5-14.15-3.87-0.74-2.37,2.42c12.38,26.13,103.63,35.25,116.25-3.13c3.85-11.69,31.859,200.851,25.62,200.92
		c-9.221,0.09-144.92,4.8-169.33,0C138.62,409.7,188.6,210.189,180.96,207.96z"/>
	<path id="voluma_7_" display="inline" fill="#BCBEC0" fill-opacity="0.5" d="M189.49,206.01c-0.431-6.52,0.079-138.23,0.109-143.49
		c11.24-40.07,44.95-39.69,58.54-39.69c13.08,0,48.37,0.05,57.74,43.34c0.59,19.38-1.641,130.301-1.811,137.93
		c0,12.9-4.55,28.33-55.85,28.101C219.01,231.43,189.49,222.5,189.49,206.01z"/>
	<path id="a16_7_" display="inline" fill="#BCBEC0" d="M262.75,43.25c-2.25,2.63-9.76,5.95-14.38,9.25
		c2.75,5.88,12.26,7.7,16.5,7.36c5.88,0.39,18.43-6.99,18.43-9.99C283.31,48.13,271.88,43.25,262.75,43.25z"/>
	<path id="a15_7_" display="inline" fill="none" stroke="#A7A9AC" stroke-miterlimit="10" d="M189.43,206.91
		c0-21,47.39-25.42,58.91-25.42c13.27,0.06,56.279,6.01,56.279,25.43c0,18.5-43.489,26.641-55.01,26.641
		C237.46,233.141,189.43,224.67,189.43,206.91z"/>
	<path id="a14_7_" display="inline" fill="none" stroke="#A7A9AC" stroke-miterlimit="10" d="M189.48,208.02
		c0-21.27,44.25-27.299,56.271-27.299c13.29,0.069,58.829,6.289,58.829,27.17c0,17.029-42.56,25.279-54.579,25.279
		C237.98,233.17,189.48,225.67,189.48,208.02z"/>
	<path id="a10_7_" display="inline" fill="none" stroke="#58595B" stroke-width="2" stroke-miterlimit="10" d="M189.48,64
		c-0.91,5.03,2.891,145.55-0.14,145.33"/>
	<path id="a9_7_" display="inline" fill="none" stroke="#58595B" stroke-width="2" stroke-miterlimit="10" d="M30.41,196.4"/>
	<path id="a8_7_" display="inline" fill="none" stroke="#58595B" stroke-width="2" stroke-miterlimit="10" d="M304.619,206.91
		c0,17.59-31.97,26.64-55.01,26.64c-18.46,0-60.13-9.22-60.13-25.54"/>
	<path id="a7_7_" display="inline" fill="none" stroke="#58595B" stroke-width="2" stroke-miterlimit="10" d="M295.42,44.02
		c0,0,2.58,4.23,4.109,6.28c21.9,19.33-22.34,36.2-51.71,36.2c-32.609,0-72.81-14.67-53.729-35.16c2-2.32,2.53-3.61,4.56-7.33"/>
	<path id="a6_7_" display="inline" fill="none" stroke="#58595B" stroke-width="2" stroke-miterlimit="10" d="M189.43,206.91
		c0-4.18-0.04-11.67-0.08-16.41"/>
	<path id="a5_7_" display="inline" fill="none" stroke="#A7A9AC" stroke-width="2" stroke-miterlimit="10" d="M281.13,344.45"/>
	<path id="a4_7_" display="inline" fill="none" stroke="#A7A9AC" stroke-miterlimit="10" d="M305.6,68.62
		c0.97,11.38-0.94,131.06-1.01,139.271"/>
	<path id="a2_7_" display="inline" fill="none" stroke="#58595B" stroke-width="2" stroke-miterlimit="10" d="M247.81,86.5
		c32.69,0,58.24-14.33,57.79-26.64c1.29,0.12-0.521,140.291-0.98,147.05c0,22.26-53.729,26.25-54.619,26.25
		c-15.63,1.46-60.521-9.46-60.521-25.15c0-8.34,0.561-137.74-0.33-148.15C191.5,85.67,245.25,86.5,247.81,86.5z"/>
	<path id="a1_7_" display="inline" fill="none" stroke="#A7A9AC" stroke-miterlimit="10" d="M302.699,200.18
		c-0.729-1.43-1.29-1.09-1.85-1.91c-0.99-0.869-2.39-2.72-3.67-3.49c-1.76-1.189-4.16-2.899-6.14-3.729
		c-1.73-0.989-3.73-2-7.44-3.21c-1.04-0.529-6.12-2.15-10.89-3.42c-5.61-1.23-7.931-1.641-12.431-2.23
		c-8.6-0.869-10.02-0.58-17.42-0.84c-4.739-0.209-13.67,1.771-17.399,2.221c-5.811,1.33-7.48,1.82-11.23,2.58
		c-2.819,0.82-3.56,1.199-7.04,2.459c-3.14,0.771-4.489,2.141-7.75,4.07c-2.34,1.32-4.25,3.311-5.739,4.84"/>
	<path id="a13_7_" display="inline" fill="none" stroke="#ED1C24" stroke-width="2" stroke-miterlimit="10" d="M198.13,42.82
		c0-9.16,41.26-21.06,50.63-21.06s46.54,11.65,46.54,21.06c-0.28,9.52-39.08,22.59-48.021,22.59
		C238.33,64.95,198.13,51.98,198.13,42.82z"/>
	<path id="a12_10_" display="inline" fill="none" stroke="#ED1C24" stroke-width="2" stroke-miterlimit="10" d="M198.83,42.82
		c0-8.98,19.92-21.07,48.81-21.07c27.73,0,47.65,12.73,47.65,21.07c0,8.34-11.99,22.59-49.67,22.59
		C212.25,65.41,198.83,51.79,198.83,42.82z"/>
	<path id="a11_7_" display="inline" fill="none" stroke="#ED1C24" stroke-width="2" stroke-miterlimit="10" d="M215.5,35.75
		c0-9.02,12.649-8.75,21.63-8.75c8.979,0,24.75,6.8,24.75,15.82c-4.25,3.36-7.61,5.65-14.23,7.98
		C239.15,50.92,215.5,44.77,215.5,35.75z"/>
</g>
<g id="Cannetje_copy" display="none">
	<path id="clip_7_" display="inline" fill="#95CB71" d="M180.96,207.96c-2.811-1.87,3.979-3.53,7.02-5.58
		c7.73-1.51,5.42-20.899,59.63-20.89c40.79,0,56.08,17.689,55.98,25.35c-2.08,28.65-94.83,37.65-112.71,2.49
		c-6.5-14.15-3.87-0.74-2.37,2.42c12.38,26.13,103.63,35.25,116.25-3.13c3.85-11.69,31.859,200.851,25.62,200.92
		c-9.221,0.09-144.92,4.8-169.33,0C138.62,409.7,188.6,210.189,180.96,207.96z"/>
	<path id="voluma_8_" display="inline" fill="#BCBEC0" d="M189.49,206.01c-0.431-6.52,0.079-138.23,0.109-143.49
		c11.24-40.07,44.95-39.69,58.54-39.69c13.08,0,48.37,0.05,57.74,43.34c0.59,19.38-1.641,130.301-1.811,137.93
		c0,12.9-4.55,28.33-55.85,28.101C219.01,231.43,189.49,222.5,189.49,206.01z"/>
	<path id="a16_8_" display="inline" fill="#BCBEC0" d="M265.72,46.18c-3.88,0-11.46,0.7-11.46,2.29c0,1.53,7.21,2.63,11.46,2.29
		c5.88,0.39,11.46-1.01,11.46-1.89C277.18,47.13,271.1,46.18,265.72,46.18z"/>
	<path id="a15_8_" display="inline" fill="none" stroke="#A7A9AC" stroke-miterlimit="10" d="M189.43,206.91
		c0-21,47.39-25.42,58.91-25.42c13.27,0.06,56.279,6.01,56.279,25.43c0,18.5-43.489,26.641-55.01,26.641
		C237.46,233.141,189.43,224.67,189.43,206.91z"/>
	<path id="a14_8_" display="inline" fill="none" stroke="#A7A9AC" stroke-miterlimit="10" d="M189.48,208.02
		c0-21.27,44.25-27.299,56.271-27.299c13.29,0.069,58.829,6.289,58.829,27.17c0,17.029-42.56,25.279-54.579,25.279
		C237.98,233.17,189.48,225.67,189.48,208.02z"/>
	<path id="a13_8_" display="inline" fill="none" stroke="#58595B" stroke-width="2" stroke-miterlimit="10" d="M198.69,42.82
		c0-16.05,38.91-20.75,49.45-19.99c9.37,0,47.23,3.94,47.23,19.99c0,19.35-38.28,21.84-47.23,21.84
		C239.19,64.2,198.69,64,198.69,42.82z"/>
	<path id="a12_12_" display="inline" fill="none" stroke="#58595B" stroke-width="2" stroke-miterlimit="10" d="M198.69,42.82
		c0-10.15,22.311-19.99,48.24-19.99c23.74,0,48.44,8.17,48.44,19.99c0,10.01-12.051,22.37-46.021,22.37
		C218.67,65.19,198.69,56.23,198.69,42.82z"/>
	<path id="a11_8_" display="inline" fill="none" stroke="#58595B" stroke-width="2" stroke-miterlimit="10" d="M198.69,42.82
		c0-17.32,42.33-19.94,51.311-19.94c8.979,0,45.359,3.89,45.359,19.94c0,18.68-39.659,22.35-48.64,22.35
		C238.23,65.29,198.69,60.85,198.69,42.82z"/>
	<path id="a10_8_" display="inline" fill="none" stroke="#58595B" stroke-width="2" stroke-miterlimit="10" d="M189.48,64
		c-0.91,5.03,2.891,145.55-0.14,145.33"/>
	<path id="a9_8_" display="inline" fill="none" stroke="#58595B" stroke-width="2" stroke-miterlimit="10" d="M30.41,196.4"/>
	<path id="a8_8_" display="inline" fill="none" stroke="#58595B" stroke-width="2" stroke-miterlimit="10" d="M304.619,206.91
		c0,17.59-31.97,26.64-55.01,26.64c-18.46,0-60.13-9.22-60.13-25.54"/>
	<path id="a7_8_" display="inline" fill="none" stroke="#58595B" stroke-width="2" stroke-miterlimit="10" d="M295.42,44.02
		c0,0,2.58,4.23,4.109,6.28c21.9,19.33-22.34,36.2-51.71,36.2c-32.609,0-72.81-14.67-53.729-35.16c2-2.32,2.53-3.61,4.56-7.33"/>
	<path id="a6_8_" display="inline" fill="none" stroke="#58595B" stroke-width="2" stroke-miterlimit="10" d="M189.43,206.91
		c0-4.18-0.04-11.67-0.08-16.41"/>
	<path id="a5_8_" display="inline" fill="none" stroke="#A7A9AC" stroke-width="2" stroke-miterlimit="10" d="M281.13,344.45"/>
	<path id="a4_8_" display="inline" fill="none" stroke="#A7A9AC" stroke-miterlimit="10" d="M305.6,68.62
		c0.97,11.38-0.94,131.06-1.01,139.271"/>
	<path id="a2_8_" display="inline" fill="none" stroke="#58595B" stroke-width="2" stroke-miterlimit="10" d="M247.81,86.5
		c32.69,0,58.24-14.33,57.79-26.64c1.29,0.12-0.521,140.291-0.98,147.05c0,22.26-53.729,26.25-54.619,26.25
		c-15.63,1.46-60.521-9.46-60.521-25.15c0-8.34,0.561-137.74-0.33-148.15C191.5,85.67,245.25,86.5,247.81,86.5z"/>
	<path id="a1_8_" display="inline" fill="none" stroke="#A7A9AC" stroke-miterlimit="10" d="M302.699,200.18
		c-0.729-1.43-1.29-1.09-1.85-1.91c-0.99-0.869-2.39-2.72-3.67-3.49c-1.76-1.189-4.16-2.899-6.14-3.729
		c-1.73-0.989-3.73-2-7.44-3.21c-1.04-0.529-6.12-2.15-10.89-3.42c-5.61-1.23-7.931-1.641-12.431-2.23
		c-8.6-0.869-10.02-0.58-17.42-0.84c-4.739-0.209-13.67,1.771-17.399,2.221c-5.811,1.33-7.48,1.82-11.23,2.58
		c-2.819,0.82-3.56,1.199-7.04,2.459c-3.14,0.771-4.489,2.141-7.75,4.07c-2.34,1.32-4.25,3.311-5.739,4.84"/>
</g>
</svg>
